<?xml version="1.0" standalone="no"?>
<!DOCTYPE svg PUBLIC "-//W3C//DTD SVG 20010904//EN"
 "http://www.w3.org/TR/2001/REC-SVG-20010904/DTD/svg10.dtd">
<svg version="1.0" xmlns="http://www.w3.org/2000/svg"
 width="280.000000pt" height="280.000000pt" viewBox="0 0 280.000000 280.000000"
 preserveAspectRatio="xMidYMid meet">
<metadata>
Created by potrace 1.15, written by Peter Selinger 2001-2017
</metadata>
<g transform="translate(0.000000,280.000000) scale(0.100000,-0.100000)"
fill="#000000" stroke="none">
<path d="M1270 2739 c-891 -89 -1445 -996 -1121 -1834 181 -469 631 -803 1137
-844 711 -57 1324 427 1440 1139 19 117 14 359 -10 469 -105 480 -446 862
-900 1009 -170 55 -377 78 -546 61z m340 -54 c270 -44 505 -167 706 -369 192
-192 302 -397 360 -668 25 -116 25 -380 0 -496 -58 -271 -168 -476 -360 -668
-202 -203 -435 -324 -711 -370 -155 -25 -374 -15 -528 25 -223 57 -433 177
-597 341 -163 163 -283 372 -343 597 -30 114 -31 125 -31 323 0 198 1 209 32
323 36 137 115 309 194 425 67 98 221 252 318 318 155 107 349 187 525 218
108 19 318 19 435 1z"/>
<path d="M1380 2556 c0 -23 4 -26 37 -26 l36 0 -6 -106 -6 -105 27 3 c24 3 27
7 29 48 2 25 5 69 9 98 l5 52 40 0 c35 0 39 3 39 25 0 23 -4 25 -44 25 -23 0
-71 3 -105 6 -61 7 -61 7 -61 -20z"/>
<path d="M1175 2548 c-69 -39 -55 -121 23 -133 72 -12 82 -16 82 -31 0 -21
-39 -33 -75 -23 -24 7 -33 5 -43 -8 -19 -26 10 -43 75 -43 44 0 59 5 78 25 52
51 22 111 -63 124 -60 9 -67 14 -58 37 5 13 15 16 51 11 39 -6 45 -4 50 15 5
13 2 24 -6 29 -20 12 -90 10 -114 -3z"/>
<path d="M940 2479 c-36 -15 -69 -30 -73 -31 -11 -4 85 -228 97 -228 5 0 45
14 88 32 68 28 77 35 72 52 -4 12 -8 22 -9 24 -1 2 -29 -9 -61 -23 -55 -24
-59 -25 -71 -9 -20 27 -17 32 37 55 49 21 57 32 42 56 -6 9 -18 7 -51 -8 -41
-18 -71 -24 -71 -15 0 2 -3 12 -6 20 -5 12 8 22 52 42 70 31 66 27 58 48 -8
22 -27 19 -104 -15z"/>
<path d="M1775 2455 c-14 -30 -36 -80 -50 -111 -14 -31 -25 -58 -23 -59 2 -1
13 -6 26 -10 20 -6 25 -1 40 34 19 46 26 48 77 24 38 -18 38 -20 14 -80 -14
-35 -14 -38 17 -47 16 -5 23 -2 27 11 2 10 25 61 50 114 l45 97 -24 11 c-22
10 -25 7 -45 -32 -12 -23 -22 -43 -24 -45 -1 -1 -23 7 -48 18 l-46 21 20 46
c16 37 17 48 7 55 -26 16 -39 7 -63 -47z"/>
<path d="M666 2318 c-31 -23 -56 -45 -56 -50 0 -5 32 -52 72 -103 61 -80 74
-93 90 -84 20 11 24 34 8 44 -5 3 -15 15 -20 26 -17 30 23 44 75 26 35 -12 43
-12 63 1 31 21 28 28 -22 42 -42 11 -43 13 -42 50 0 28 -6 46 -23 64 -37 39
-77 34 -145 -16z"/>
<path d="M2035 2244 c-60 -29 -111 -58 -113 -63 -6 -19 35 -32 62 -20 21 10
29 7 65 -21 23 -19 41 -35 41 -36 0 -1 -5 -15 -11 -30 -9 -24 -7 -30 13 -45
l22 -17 42 126 c37 114 39 129 26 145 -8 9 -20 17 -26 16 -6 0 -60 -25 -121
-55z"/>
<path d="M1241 2239 c-333 -65 -606 -332 -678 -663 -20 -92 -20 -270 0 -362
64 -296 286 -540 577 -636 82 -26 114 -31 230 -35 114 -4 149 -2 225 16 307
73 553 311 637 616 17 65 21 107 21 220 0 113 -4 155 -21 220 -66 240 -234
442 -456 550 -127 62 -232 85 -376 84 -63 -1 -135 -5 -159 -10z m346 -59 c286
-68 513 -288 595 -576 32 -113 32 -305 0 -418 -66 -230 -237 -431 -446 -526
-118 -54 -223 -73 -366 -68 -107 5 -139 10 -223 38 -361 121 -589 478 -546
855 38 344 294 625 634 700 93 21 256 18 352 -5z"/>
<path d="M1445 2099 c-16 -5 -54 -6 -82 -3 -50 6 -54 5 -88 -29 -23 -23 -35
-44 -35 -62 0 -22 -3 -26 -17 -20 -37 15 -96 25 -113 20 -10 -3 -30 -15 -45
-27 -21 -16 -25 -26 -20 -48 5 -21 1 -31 -13 -42 -25 -17 -34 -85 -13 -93 25
-10 -4 -28 -48 -30 -48 -3 -71 -19 -71 -50 0 -13 -7 -25 -15 -29 -23 -9 -18
-32 11 -45 15 -6 23 -15 20 -19 -7 -7 -11 -8 -52 -10 -20 -2 -61 -52 -76 -93
-4 -11 9 -32 36 -62 41 -46 42 -46 19 -56 -13 -6 -23 -19 -23 -31 0 -12 -10
-25 -25 -32 -30 -14 -41 -48 -25 -78 9 -16 9 -25 -1 -36 -9 -11 -9 -17 1 -29
6 -8 9 -23 5 -35 -5 -16 -2 -20 15 -20 19 0 21 -4 16 -26 -10 -39 11 -86 49
-110 29 -19 39 -21 82 -12 45 9 88 42 77 60 -10 16 19 18 43 3 24 -16 24 -18
9 -33 -15 -15 -18 -15 -26 -2 -8 13 -10 13 -10 -2 0 -9 -6 -19 -12 -21 -7 -3
-2 -6 12 -6 14 -1 39 8 55 19 62 41 151 15 193 -56 20 -34 22 -50 19 -125 -2
-71 -8 -97 -30 -139 -15 -29 -26 -55 -23 -57 2 -2 38 -7 79 -10 l74 -6 18 91
c13 68 16 111 10 167 -8 87 0 105 49 105 17 0 42 7 54 16 20 14 24 14 44 0 39
-27 44 -17 8 14 l-35 30 55 -3 c52 -2 55 -4 58 -29 5 -41 58 -78 111 -78 34 0
49 6 73 31 22 21 34 27 41 20 6 -6 33 -11 59 -11 45 0 49 2 68 40 11 21 20 52
20 68 0 15 5 33 12 40 9 9 9 15 0 24 -7 7 -12 22 -12 34 0 12 -10 28 -22 37
l-23 15 27 7 c29 7 37 27 44 112 4 48 2 54 -23 70 -16 9 -30 19 -33 21 -3 2 3
8 13 13 37 21 7 99 -39 99 -33 0 -30 11 12 38 32 21 35 26 28 55 -4 18 -6 44
-6 59 0 18 -10 38 -30 59 -27 27 -37 30 -75 27 -29 -2 -43 1 -43 9 0 6 5 15
10 18 15 9 12 61 -4 74 -8 7 -18 26 -21 42 -5 22 -12 29 -30 29 -14 0 -29 9
-35 21 -11 20 -11 20 -56 -5 l-45 -25 -15 35 c-15 37 -28 40 -75 20 -12 -5
-20 1 -29 24 -7 17 -26 38 -41 46 -16 8 -29 19 -29 24 0 12 -5 11 -45 -1z
m-359 -843 c3 -8 13 -16 22 -19 9 -2 31 -28 49 -58 52 -88 53 -85 -18 -93 -56
-5 -65 -4 -86 16 -28 26 -29 32 -2 59 18 18 20 28 14 65 -4 29 -3 44 5 44 6 0
13 -6 16 -14z m629 -85 c7 -13 -39 -61 -59 -61 -19 0 -21 -11 -5 -27 6 -6 8
-16 5 -22 -10 -16 -36 -14 -36 3 0 11 -8 12 -41 5 -23 -6 -51 -16 -63 -24 -11
-8 -40 -15 -63 -15 -39 0 -43 2 -43 24 0 36 21 47 104 55 41 4 79 11 83 15 4
5 -1 6 -13 2 -13 -4 -26 -1 -33 8 -20 24 23 60 63 53 18 -3 39 -1 46 3 14 9
44 -2 55 -19z"/>
<path d="M483 2130 c-82 -50 -84 -183 -3 -225 67 -35 152 -8 183 58 22 46 21
85 -3 124 -37 61 -116 81 -177 43z m122 -60 c28 -28 26 -87 -4 -111 -62 -50
-151 14 -125 90 18 51 86 62 129 21z"/>
<path d="M2231 2060 c-46 -33 -89 -64 -94 -69 -11 -11 75 -151 92 -151 5 0 14
7 21 15 11 13 8 23 -18 61 -18 24 -32 48 -32 52 1 4 36 31 80 60 72 48 78 55
67 73 -6 10 -16 19 -22 19 -5 -1 -48 -27 -94 -60z"/>
<path d="M326 1892 c-10 -16 -56 -145 -56 -157 0 -14 221 -98 231 -88 22 24
13 46 -25 59 -22 8 -41 16 -44 18 -2 3 5 29 17 60 l20 55 -20 6 c-26 8 -31 3
-53 -57 -16 -44 -19 -47 -39 -37 -12 7 -23 13 -24 14 -2 1 8 29 21 63 20 51
22 62 9 66 -20 8 -31 7 -37 -2z"/>
<path d="M2353 1856 c-56 -23 -105 -44 -108 -47 -9 -10 51 -154 66 -156 35 -7
40 12 19 62 -11 27 -19 54 -16 60 2 6 43 26 90 44 47 18 86 35 86 37 0 11 -21
44 -28 43 -4 0 -53 -20 -109 -43z"/>
<path d="M2095 684 c-61 -31 -81 -86 -49 -133 13 -19 23 -22 53 -19 20 3 52
12 73 21 31 14 38 14 48 2 15 -18 -19 -53 -61 -62 -25 -5 -28 -9 -23 -27 9
-29 9 -29 43 -21 39 8 88 54 97 89 8 34 -22 79 -56 84 -13 2 -45 -6 -72 -19
-39 -18 -51 -20 -61 -10 -9 10 -6 17 16 37 15 13 35 24 43 24 15 0 17 9 8 34
-8 20 -21 20 -59 0z"/>
<path d="M707 570 c-66 -79 -92 -88 -110 -40 -9 24 -16 29 -32 24 -29 -9 -29
-10 -15 -43 15 -38 50 -61 93 -61 33 0 44 9 141 117 29 32 29 33 11 53 -10 11
-21 20 -24 20 -3 0 -32 -32 -64 -70z"/>
<path d="M810 488 c-22 -45 -40 -90 -40 -100 0 -34 25 -70 62 -89 80 -41 123
-18 182 100 34 67 35 71 17 81 -11 5 -22 10 -25 10 -3 0 -21 -31 -40 -68 -19
-38 -42 -74 -51 -82 -20 -17 -62 -4 -81 26 -12 18 -10 29 26 102 37 78 38 82
20 92 -10 5 -21 10 -25 10 -3 0 -24 -37 -45 -82z"/>
<path d="M1852 514 l-69 -36 54 -101 c31 -56 59 -106 63 -110 4 -5 18 -4 30 3
l21 11 -20 35 -21 35 24 10 c18 9 31 7 64 -10 34 -17 45 -19 67 -9 14 6 25 14
25 18 0 3 -20 16 -45 28 -40 19 -44 25 -35 41 5 11 10 29 10 41 0 27 -52 80
-78 80 -11 0 -51 -16 -90 -36z"/>
<path d="M1100 445 c0 -3 -11 -57 -25 -121 -14 -64 -25 -118 -25 -120 0 -3 12
-4 27 -2 25 3 28 9 40 67 7 36 15 67 18 69 3 3 23 -34 45 -81 26 -56 48 -88
61 -92 11 -4 22 -5 24 -3 1 1 14 58 28 126 23 117 23 122 6 122 -11 0 -22 0
-26 1 -5 0 -15 -33 -24 -73 l-16 -73 -37 80 c-20 44 -44 86 -53 93 -17 12 -43
17 -43 7z"/>
<path d="M1600 430 c-52 -12 -100 -69 -100 -120 0 -23 7 -54 15 -70 41 -79
181 -82 231 -5 65 100 -26 222 -146 195z m90 -78 c35 -44 24 -97 -23 -117 -36
-15 -82 -3 -97 25 -16 30 -12 85 8 102 36 33 82 29 112 -10z"/>
</g>
</svg>
